<!-- <?xml version="1.0" standalone="no"?>
<!DOCTYPE svg PUBLIC "-//W3C//DTD SVG 20010904//EN"
 "http://www.w3.org/TR/2001/REC-SVG-20010904/DTD/svg10.dtd"> -->
<svg version="1.0" xmlns="http://www.w3.org/2000/svg"
 width="505.000000pt" height="494.000000pt" viewBox="0 0 505.000000 494.000000"
 preserveAspectRatio="xMidYMid meet">

<g transform="translate(0.000000,494.000000) scale(0.100000,-0.100000)"
fill="#000000" stroke="none">
<path d="M2050 4774 c-256 -55 -541 -177 -745 -319 -225 -158 -321 -293 -552
-780 -106 -223 -162 -425 -170 -617 -5 -116 -4 -130 16 -172 33 -67 121 -142
229 -194 153 -74 182 -124 146 -248 -14 -49 -14 -59 1 -116 18 -72 64 -198 72
-198 11 0 -6 71 -32 135 -31 78 -41 170 -23 204 7 14 31 34 52 45 23 12 46 35
55 53 15 31 18 33 77 33 l61 0 6 -117 c8 -142 32 -235 93 -353 105 -205 237
-306 429 -330 210 -27 397 24 522 143 62 58 104 127 139 227 31 89 74 286 74
339 0 47 18 61 77 61 59 0 68 -13 81 -120 29 -244 114 -450 226 -546 91 -79
179 -104 368 -104 87 0 155 5 193 15 189 48 309 170 389 393 26 74 69 236 81
305 5 33 9 37 36 37 22 0 32 -6 39 -26 6 -14 24 -43 42 -65 48 -60 49 -125 3
-254 -50 -141 -51 -151 -6 -62 53 104 91 200 91 230 0 14 21 55 46 92 98 143
158 293 148 369 -7 48 -5 50 68 96 85 53 110 150 73 280 -9 30 -20 100 -24
155 -11 144 -18 156 -228 404 -100 118 -102 122 -118 198 -25 122 -51 165
-183 294 -106 104 -124 117 -170 128 -28 7 -56 10 -62 6 -18 -11 -40 16 -40
50 0 26 -9 41 -45 74 -24 22 -64 50 -87 61 -103 47 -350 131 -433 146 -114 21
-261 14 -359 -16 l-69 -22 -56 25 c-165 73 -370 96 -531 61z m969 -859 c58
-63 78 -109 117 -273 48 -202 89 -331 123 -383 49 -78 144 -162 246 -219 121
-67 127 -71 170 -149 l35 -64 -33 6 c-19 3 -58 23 -88 46 -74 56 -123 66 -324
66 -183 -1 -299 -18 -382 -57 -47 -22 -83 -60 -83 -89 0 -9 -15 -26 -32 -37
-29 -18 -54 -21 -193 -23 l-161 -3 -37 29 c-20 17 -37 37 -37 46 0 25 -38 68
-81 89 -90 46 -373 84 -548 74 -111 -6 -129 -13 -192 -71 -21 -19 -45 -27
-104 -34 -43 -6 -79 -8 -82 -6 -5 6 112 100 155 125 35 19 40 20 68 6 28 -14
36 -13 90 7 109 40 223 188 310 400 41 103 138 222 270 334 114 97 259 155
474 190 58 9 137 22 175 29 39 7 78 11 87 8 10 -2 35 -24 57 -47z m-896 -1174
c182 -42 226 -88 227 -241 0 -130 -56 -295 -138 -407 -61 -82 -222 -138 -382
-131 -82 3 -104 8 -155 33 -69 35 -140 102 -178 166 -39 66 -77 224 -77 318 1
96 13 148 41 175 12 12 19 16 15 9 -14 -25 -23 -104 -16 -136 l7 -32 7 30 c30
123 47 165 74 179 125 65 380 81 575 37z m1281 -6 c43 -7 102 -26 132 -40 58
-28 64 -41 78 -145 7 -45 6 -45 -7 -15 -17 35 -101 116 -145 139 -87 45 -254
58 -389 30 -98 -20 -137 -40 -213 -110 -33 -31 -62 -55 -65 -53 -2 3 1 23 6
45 12 46 45 86 89 109 27 14 133 39 205 48 72 9 236 5 309 -8z m-3 -94 c97
-37 184 -145 160 -198 -39 -86 -425 -150 -656 -108 -97 18 -105 18 -105 4 0
-17 59 -36 168 -54 90 -15 120 -16 225 -6 145 14 316 66 382 117 l43 32 12
-26 c21 -47 32 -1 28 123 l-3 114 27 -26 c95 -91 -18 -527 -161 -617 -62 -39
-118 -49 -249 -44 -202 9 -309 58 -394 182 -59 86 -88 161 -95 246 -5 64 -5
66 36 116 58 73 161 141 241 159 95 21 268 14 341 -14z"/>
<path d="M1764 2725 c-142 -31 -254 -128 -254 -221 0 -36 6 -51 35 -82 36 -40
121 -91 196 -117 115 -41 408 -38 508 6 58 25 71 48 71 133 0 70 -26 121 -96
188 -94 89 -292 130 -460 93z m248 -50 c37 -7 88 -23 112 -34 85 -37 176 -142
176 -203 0 -39 -35 -85 -77 -99 -49 -18 -343 -17 -428 1 -71 14 -194 69 -224
99 -35 35 -28 75 25 131 95 102 249 141 416 105z"/>
<path d="M1913 2560 c-55 -24 -73 -59 -49 -94 49 -76 156 -79 186 -5 33 78
-50 138 -137 99z"/>
<path d="M3061 2534 c-40 -33 -42 -75 -5 -109 38 -35 94 -34 133 3 45 41 48
67 12 102 -39 40 -96 42 -140 4z"/>
<path d="M3881 2172 c-14 -26 -49 -178 -56 -247 -18 -166 -63 -392 -111 -560
-31 -106 -61 -145 -111 -145 -27 0 -37 -7 -57 -39 -14 -22 -36 -41 -50 -45
-16 -4 -28 -16 -32 -31 -7 -27 -58 -72 -113 -98 -31 -16 -36 -16 -52 -2 -9 9
-29 43 -44 76 l-26 59 20 34 c36 58 23 105 -48 169 -78 70 -135 85 -254 64
-75 -13 -82 -12 -145 9 -56 18 -99 23 -263 29 -173 7 -203 5 -250 -10 -44 -15
-74 -17 -178 -12 -140 6 -164 1 -224 -53 -74 -64 -82 -84 -82 -195 -1 -73 -6
-111 -19 -142 -16 -39 -21 -43 -53 -43 -35 0 -103 33 -103 50 0 5 -8 11 -18
14 -19 6 -75 78 -100 128 -20 39 -51 46 -72 18 -22 -29 -40 -18 -40 23 0 18
-14 72 -30 122 -29 87 -46 168 -111 519 -30 166 -55 276 -64 285 -11 10 -12
-8 -4 -74 4 -38 8 -91 8 -117 1 -58 -13 -62 -64 -17 -19 17 -35 27 -35 22 0
-12 80 -88 107 -102 14 -7 24 -24 27 -44 54 -346 85 -519 116 -642 50 -195 53
-223 41 -390 -7 -107 -13 -142 -26 -151 -8 -6 -70 -15 -138 -19 -199 -11 -221
-18 -350 -110 -31 -22 -91 -47 -165 -71 -161 -50 -342 -124 -502 -206 -224
-115 -210 -103 -210 -170 l0 -58 665 0 c366 0 665 2 665 4 0 2 -29 63 -64 137
-94 196 -105 249 -54 249 13 0 46 11 74 24 54 25 79 62 103 151 10 38 37 255
43 340 l3 40 95 -142 c114 -170 357 -433 468 -506 145 -95 308 -137 531 -137
174 0 248 11 353 51 107 42 153 79 275 222 l58 68 7 -58 c15 -121 51 -327 67
-381 14 -46 22 -58 40 -60 20 -3 23 0 18 20 -3 12 -8 50 -12 83 l-6 60 39 -41
c28 -28 42 -53 47 -82 l7 -42 551 0 c302 0 548 2 546 4 -2 1 -54 26 -116 54
-161 73 -358 142 -682 237 -375 110 -432 129 -448 151 -7 10 -13 41 -13 70 l0
53 87 83 c121 115 147 143 203 218 110 145 180 316 224 542 36 179 66 352 66
372 0 10 11 41 24 69 14 32 26 81 30 127 4 41 10 103 13 136 6 63 -7 91 -26
56z m-1769 -824 c-7 -7 -12 -8 -12 -2 0 6 3 14 7 17 3 4 9 5 12 2 2 -3 -1 -11
-7 -17z m1004 -10 c49 -38 79 -78 58 -78 -19 0 -93 54 -97 72 -4 13 -11 19
-21 15 -8 -3 -18 -2 -21 3 -12 19 53 9 81 -12z m-1186 -23 c-7 -8 -17 -15 -23
-15 -5 0 -2 9 8 20 21 23 35 19 15 -5z m221 -42 c-9 -16 -10 -15 -11 9 0 14 3
35 8 45 6 15 8 14 10 -9 2 -15 -1 -35 -7 -45z m94 47 c-4 -12 0 -26 9 -36 9
-8 16 -24 16 -34 0 -10 6 -20 13 -23 19 -7 120 3 144 15 16 8 26 8 37 -1 10
-8 43 -11 103 -8 82 3 88 5 93 27 l6 23 17 -26 c15 -23 24 -27 67 -27 41 0 50
3 55 21 4 12 10 17 14 12 12 -19 62 -24 86 -9 14 9 26 11 32 5 5 -5 40 -12 78
-15 140 -11 138 -39 -6 -76 -212 -53 -457 -65 -718 -34 -155 19 -198 28 -278
57 -70 26 -92 48 -66 66 23 18 75 16 157 -4 74 -18 99 -12 104 23 8 50 14 64
28 64 11 0 13 -6 9 -20z m-272 -162 c106 -46 153 -56 357 -74 336 -29 612 -5
782 68 55 23 85 17 81 -18 -18 -188 -49 -291 -112 -380 -66 -92 -104 -126
-178 -164 -34 -17 -65 -35 -68 -40 -3 -4 -24 -11 -48 -15 -23 -4 -53 -12 -67
-18 -23 -10 -72 -16 -125 -15 -273 2 -278 2 -334 31 -30 15 -59 27 -64 27 -17
0 -110 66 -167 119 -30 28 -58 51 -61 51 -3 0 -19 33 -37 73 -55 129 -87 355
-52 377 20 13 12 14 93 -22z m-517 -13 c4 -8 3 -23 -1 -32 -6 -17 -7 -17 -21
1 -8 11 -14 26 -14 33 0 18 29 16 36 -2z m84 -200 c0 -8 -2 -15 -4 -15 -2 0
-6 7 -10 15 -3 8 -1 15 4 15 6 0 10 -7 10 -15z m64 -11 c3 -8 2 -12 -4 -9 -6
3 -10 10 -10 16 0 14 7 11 14 -7z"/>
<path d="M2747 932 c-66 -35 -72 -36 -205 -42 l-137 -5 54 -23 c50 -21 53 -23
38 -40 -12 -13 -14 -29 -9 -72 6 -48 10 -55 31 -58 27 -4 91 51 91 79 0 10
-12 27 -26 38 l-26 21 28 10 c16 6 49 16 74 21 56 12 145 62 160 89 14 26 8
25 -73 -18z"/>
<path d="M2854 1691 c6 -49 4 -68 -9 -87 -20 -31 -79 -61 -158 -79 -69 -16
-129 -10 -261 25 -39 10 -90 22 -113 25 -27 4 -54 18 -74 36 -38 35 -39 35
-39 6 0 -43 49 -76 141 -97 46 -10 109 -26 139 -35 78 -23 216 -16 290 15 111
47 148 110 115 195 -26 70 -39 68 -31 -4z"/>
<path d="M1426 1313 c-11 -11 -6 -23 9 -23 8 0 15 4 15 9 0 13 -16 22 -24 14z"/>
</g>
</svg>
